# xmcd
#
# Track frame offsets:
#	150
#	31254
#	49626
#	71098
#	91638
#	110248
#	131178
#	151150
#	171920
#	190198
#	225836
#	244119
#	262611
#	278393
#	298603
#
# Disc length: 4265
#
# Revision: 1
# Processed by: cddbd v1.5.1PL0 Copyright (c) Steve Scherf et al.
# Submitted via: FreeRIP 2.53 
# Normalized: r0:DSETVAR1,TDELIM( - )
#
DISCID=c010a70f
DTITLE=Various Artist - black total vl.2
DYEAR=1900
DGENRE=Hip-Hop
TTITLE0=kyliy minogue - put yourself
TTITLE1=black stret - tonight tonight
TTITLE2=nine - whutcha want
TTITLE3=c j lew - phat trax raga
TTITLE4=total - do you now (same beat)
TTITLE5=ray luv - difinition of hustlin
TTITLE6=buju banton - champion
TTITLE7=2 pac - dear mama
TTITLE8=ini kamoze - how luvin
TTITLE9=chevely franklin - nice naught
TTITLE10=mad lion - real thing
TTITLE11=suga - whats up star
TTITLE12=chanel line - down goes devil
TTITLE13=aaliyah - at your best
TTITLE14=kyli man - live raga
EXTD=
EXTT0=
EXTT1=
EXTT2=
EXTT3=
EXTT4=
EXTT5=
EXTT6=
EXTT7=
EXTT8=
EXTT9=
EXTT10=
EXTT11=
EXTT12=
EXTT13=
EXTT14=
PLAYORDER=
